<?xml version="1.0" encoding="UTF-8" ?>
<!DOCTYPE svg PUBLIC "-//W3C//DTD SVG 1.1//EN" "http://www.w3.org/Graphics/SVG/1.1/DTD/svg11.dtd">

<svg width="50px" height="50px" viewBox="0 0 512 512" version="1.1" xmlns="http://www.w3.org/2000/svg"  preserveAspectRatio="xMidYMid meet">

<g transform="translate(0,80) scale(.7,.7)">


<path fill="#47a750" d=" M 140.05 122.85 C 159.54 129.59 177.25 140.75 193.11 153.89 C 203.67 165.15 213.03 178.36 215.26 194.00 C 218.40 193.42 219.25 189.42 221.50 187.45 C 246.17 160.54 277.92 137.61 315.03 133.11 C 341.94 130.60 368.34 136.98 393.65 145.35 C 428.75 156.70 453.71 185.07 476.15 212.81 C 487.82 226.61 497.03 242.60 512.00 253.24 L 512.00 258.71 C 503.54 264.22 499.17 273.46 493.40 281.36 C 480.78 301.77 464.79 320.21 445.26 334.30 C 411.54 360.90 365.90 371.49 323.84 362.34 C 305.32 361.36 287.12 356.92 269.49 351.34 C 236.84 341.96 210.13 315.71 197.84 284.19 C 195.76 279.05 195.03 273.09 191.07 268.92 C 187.12 265.02 189.26 258.22 185.94 254.03 C 180.14 250.05 173.63 247.05 166.93 244.97 C 166.31 249.37 171.69 250.22 173.98 253.00 C 184.37 263.94 186.88 280.92 180.76 294.68 C 175.09 312.33 162.31 326.88 146.92 336.88 C 125.95 350.33 100.71 354.35 76.47 357.56 C 51.15 359.81 25.95 356.35 0.84 353.90 C 20.12 339.18 34.25 318.80 48.16 299.13 C 59.88 282.51 72.03 264.85 91.27 256.19 C 106.62 246.40 124.75 240.49 143.06 240.91 C 128.68 238.42 111.03 240.60 95.33 240.86 C 93.47 238.63 90.01 234.63 93.24 232.17 C 109.01 230.27 124.54 234.31 140.26 233.97 C 132.13 226.86 125.11 217.79 123.03 206.98 C 116.30 176.65 150.44 153.40 140.05 122.85 Z" />

</g>
 </svg>
